<!-- Exported by Character Map UWP -->
<svg height="100%" viewBox="60 446 876 659" width="100%" xmlns="http://www.w3.org/2000/svg" xmlns:xlink="http://www.w3.org/1999/xlink">
  <path d="M286,1094.5L217,1094.5L215,515L59.5,515L59.5,445.5L190.5,445.5C217.833,445.5 238.833,447.917 253.5,452.75C268.167,457.583 278.583,465.25 284.75,475.75C290.917,486.25 294,504.833 294,531.5L296,940L298,940C342.333,848 384.917,766.833 425.75,696.5C466.583,626.167 501.917,574.833 531.75,542.5C561.583,510.167 593.583,485.917 627.75,469.75C661.917,453.583 698.833,445.5 738.5,445.5C792.5,445.5 835.5,459.833 867.5,488.5C899.5,517.167 915.5,554.667 915.5,601C915.5,673 885.5,722.5 825.5,749.5C857.167,758.167 883.333,776.25 904,803.75C924.667,831.25 935,862.667 935,898C935,967.333 907.667,1019.08 853,1053.25C798.333,1087.42 716.167,1104.5 606.5,1104.5L564.5,1104.5L564.5,1035L597,1035C685.667,1035 751,1023.67 793,1001C835,978.333 856,944 856,898C856,865.333 843.583,840.083 818.75,822.25C793.917,804.417 759.333,795.5 715,795.5L639,795.5L639,726L686,726C731.333,726 767.75,715.667 795.25,695C822.75,674.333 836.5,646.333 836.5,611C836.5,580.333 827.167,556.667 808.5,540C789.833,523.333 763.667,515 730,515C664.333,515 601.667,559.667 542,649C513,692 472.5,760.5 420.5,854.5C352.833,976.833 308,1056.83 286,1094.5Z" fill="#FFFFFF" fill-opacity="1">
  </path>
</svg>